<mxfile host="app.diagrams.net" modified="2024-03-03T06:51:36.281Z" agent="Mozilla/5.0 (Windows NT 10.0; Win64; x64) AppleWebKit/537.36 (KHTML, like Gecko) Chrome/120.0.0.0 YaBrowser/24.1.0.0 Safari/537.36" etag="EeSZ7teSFhcf0m8xV-a-" version="23.1.7" type="device">
  <diagram name="Страница — 1" id="bgeZx4Q2gVEzLjAsYfCw">
    <mxGraphModel dx="1386" dy="791" grid="1" gridSize="10" guides="1" tooltips="1" connect="1" arrows="1" fold="1" page="1" pageScale="1" pageWidth="827" pageHeight="1169" math="0" shadow="0">
      <root>
        <mxCell id="0" />
        <mxCell id="1" parent="0" />
        <mxCell id="2ib-S4Z_8qzgDe8WUeCK-3" value="" style="edgeStyle=orthogonalEdgeStyle;rounded=0;orthogonalLoop=1;jettySize=auto;html=1;" edge="1" parent="1" source="2ib-S4Z_8qzgDe8WUeCK-1" target="2ib-S4Z_8qzgDe8WUeCK-2">
          <mxGeometry relative="1" as="geometry" />
        </mxCell>
        <mxCell id="2ib-S4Z_8qzgDe8WUeCK-1" value="Звонок или вход в барбершоп" style="rounded=0;whiteSpace=wrap;html=1;" vertex="1" parent="1">
          <mxGeometry x="280" y="20" width="180" height="60" as="geometry" />
        </mxCell>
        <mxCell id="2ib-S4Z_8qzgDe8WUeCK-5" value="" style="edgeStyle=orthogonalEdgeStyle;rounded=0;orthogonalLoop=1;jettySize=auto;html=1;" edge="1" parent="1" source="2ib-S4Z_8qzgDe8WUeCK-2" target="2ib-S4Z_8qzgDe8WUeCK-4">
          <mxGeometry relative="1" as="geometry" />
        </mxCell>
        <mxCell id="2ib-S4Z_8qzgDe8WUeCK-2" value="Выбор услуги" style="rounded=0;whiteSpace=wrap;html=1;" vertex="1" parent="1">
          <mxGeometry x="280" y="120" width="180" height="60" as="geometry" />
        </mxCell>
        <mxCell id="2ib-S4Z_8qzgDe8WUeCK-7" value="" style="edgeStyle=orthogonalEdgeStyle;rounded=0;orthogonalLoop=1;jettySize=auto;html=1;" edge="1" parent="1" source="2ib-S4Z_8qzgDe8WUeCK-4" target="2ib-S4Z_8qzgDe8WUeCK-6">
          <mxGeometry relative="1" as="geometry" />
        </mxCell>
        <mxCell id="2ib-S4Z_8qzgDe8WUeCK-9" style="edgeStyle=orthogonalEdgeStyle;rounded=0;orthogonalLoop=1;jettySize=auto;html=1;" edge="1" parent="1" source="2ib-S4Z_8qzgDe8WUeCK-4">
          <mxGeometry relative="1" as="geometry">
            <mxPoint x="370" y="200" as="targetPoint" />
            <Array as="points">
              <mxPoint x="740" y="250" />
              <mxPoint x="740" y="200" />
            </Array>
          </mxGeometry>
        </mxCell>
        <mxCell id="2ib-S4Z_8qzgDe8WUeCK-4" value="Запись по времени и дате" style="rounded=0;whiteSpace=wrap;html=1;" vertex="1" parent="1">
          <mxGeometry x="280" y="220" width="180" height="60" as="geometry" />
        </mxCell>
        <mxCell id="2ib-S4Z_8qzgDe8WUeCK-6" value="Конец" style="rounded=0;whiteSpace=wrap;html=1;" vertex="1" parent="1">
          <mxGeometry x="280" y="320" width="180" height="60" as="geometry" />
        </mxCell>
        <mxCell id="2ib-S4Z_8qzgDe8WUeCK-10" value="Выбранное время свободно" style="text;html=1;align=center;verticalAlign=middle;whiteSpace=wrap;rounded=0;" vertex="1" parent="1">
          <mxGeometry x="370" y="290" width="160" height="30" as="geometry" />
        </mxCell>
        <mxCell id="2ib-S4Z_8qzgDe8WUeCK-11" value="Выбранное&amp;nbsp;время занято" style="text;html=1;align=center;verticalAlign=middle;whiteSpace=wrap;rounded=0;" vertex="1" parent="1">
          <mxGeometry x="470" y="230" width="170" height="30" as="geometry" />
        </mxCell>
        <mxCell id="2ib-S4Z_8qzgDe8WUeCK-22" style="edgeStyle=orthogonalEdgeStyle;rounded=0;orthogonalLoop=1;jettySize=auto;html=1;entryX=0.5;entryY=0;entryDx=0;entryDy=0;" edge="1" parent="1" source="2ib-S4Z_8qzgDe8WUeCK-12" target="2ib-S4Z_8qzgDe8WUeCK-13">
          <mxGeometry relative="1" as="geometry" />
        </mxCell>
        <mxCell id="2ib-S4Z_8qzgDe8WUeCK-12" value="Вход в барбершоп" style="rounded=0;whiteSpace=wrap;html=1;" vertex="1" parent="1">
          <mxGeometry x="280" y="440" width="180" height="60" as="geometry" />
        </mxCell>
        <mxCell id="2ib-S4Z_8qzgDe8WUeCK-16" value="" style="edgeStyle=orthogonalEdgeStyle;rounded=0;orthogonalLoop=1;jettySize=auto;html=1;" edge="1" parent="1" source="2ib-S4Z_8qzgDe8WUeCK-13" target="2ib-S4Z_8qzgDe8WUeCK-15">
          <mxGeometry relative="1" as="geometry" />
        </mxCell>
        <mxCell id="2ib-S4Z_8qzgDe8WUeCK-23" style="edgeStyle=orthogonalEdgeStyle;rounded=0;orthogonalLoop=1;jettySize=auto;html=1;" edge="1" parent="1" source="2ib-S4Z_8qzgDe8WUeCK-13">
          <mxGeometry relative="1" as="geometry">
            <mxPoint x="370" y="510" as="targetPoint" />
            <Array as="points">
              <mxPoint x="640" y="550" />
              <mxPoint x="640" y="510" />
            </Array>
          </mxGeometry>
        </mxCell>
        <mxCell id="2ib-S4Z_8qzgDe8WUeCK-13" value="Если уже наступило время записи" style="rounded=0;whiteSpace=wrap;html=1;" vertex="1" parent="1">
          <mxGeometry x="280" y="520" width="180" height="60" as="geometry" />
        </mxCell>
        <mxCell id="2ib-S4Z_8qzgDe8WUeCK-25" value="" style="edgeStyle=orthogonalEdgeStyle;rounded=0;orthogonalLoop=1;jettySize=auto;html=1;" edge="1" parent="1" source="2ib-S4Z_8qzgDe8WUeCK-15" target="2ib-S4Z_8qzgDe8WUeCK-24">
          <mxGeometry relative="1" as="geometry" />
        </mxCell>
        <mxCell id="2ib-S4Z_8qzgDe8WUeCK-15" value="Оказание услуги" style="rounded=0;whiteSpace=wrap;html=1;" vertex="1" parent="1">
          <mxGeometry x="280" y="600" width="180" height="60" as="geometry" />
        </mxCell>
        <mxCell id="2ib-S4Z_8qzgDe8WUeCK-19" value="Ожидание" style="text;html=1;align=center;verticalAlign=middle;whiteSpace=wrap;rounded=0;" vertex="1" parent="1">
          <mxGeometry x="510" y="520" width="60" height="30" as="geometry" />
        </mxCell>
        <mxCell id="2ib-S4Z_8qzgDe8WUeCK-27" value="" style="edgeStyle=orthogonalEdgeStyle;rounded=0;orthogonalLoop=1;jettySize=auto;html=1;" edge="1" parent="1" source="2ib-S4Z_8qzgDe8WUeCK-24" target="2ib-S4Z_8qzgDe8WUeCK-26">
          <mxGeometry relative="1" as="geometry" />
        </mxCell>
        <mxCell id="2ib-S4Z_8qzgDe8WUeCK-24" value="Оплата услуги" style="rounded=0;whiteSpace=wrap;html=1;" vertex="1" parent="1">
          <mxGeometry x="280" y="680" width="180" height="60" as="geometry" />
        </mxCell>
        <mxCell id="2ib-S4Z_8qzgDe8WUeCK-26" value="Выход из салона" style="rounded=0;whiteSpace=wrap;html=1;" vertex="1" parent="1">
          <mxGeometry x="280" y="760" width="180" height="60" as="geometry" />
        </mxCell>
      </root>
    </mxGraphModel>
  </diagram>
</mxfile>
